<svg width="25" height="21" viewBox="0 0 25 21" fill="none" xmlns="http://www.w3.org/2000/svg">
<path fill-rule="evenodd" clip-rule="evenodd" d="M0.866092 9.74707C0.315382 10.1463 0.315382 10.967 0.866092 11.3663L13.7094 20.6777C14.3705 21.157 15.2964 20.6847 15.2964 19.8681L15.2964 18.6954C15.2964 18.3691 15.1372 18.0633 14.8698 17.8761L5.58382 11.3759C5.0151 10.9778 5.0151 10.1356 5.58382 9.73745L14.8699 3.23722C15.1372 3.0501 15.2964 2.74431 15.2964 2.41799L15.2964 1.24527C15.2964 0.428663 14.3706 -0.0436653 13.7094 0.435655L0.866092 9.74707Z" fill="#67375C"/>
<path fill-rule="evenodd" clip-rule="evenodd" d="M10.413 9.74707C9.86226 10.1463 9.86226 10.967 10.413 11.3663L23.2563 20.6777C23.9174 21.157 24.8433 20.6847 24.8433 19.8681L24.8433 18.6954C24.8433 18.3691 24.6841 18.0633 24.4167 17.8761L15.1307 11.3759C14.562 10.9778 14.562 10.1356 15.1307 9.73745L24.4167 3.23722C24.6841 3.0501 24.8433 2.74431 24.8433 2.41799L24.8433 1.24527C24.8433 0.428663 23.9174 -0.0436653 23.2563 0.435655L10.413 9.74707Z" fill="#67375C"/>
</svg>
