<svg width="25" height="21" viewBox="0 0 25 21" fill="none" xmlns="http://www.w3.org/2000/svg">
<path fill-rule="evenodd" clip-rule="evenodd" d="M24.4303 11.3663C24.981 10.967 24.981 10.1463 24.4303 9.74705L11.587 0.435639C10.9258 -0.0436816 10 0.428643 10 1.24525L10 2.41798C10 2.74429 10.1592 3.05008 10.4265 3.23721L19.7126 9.73743C20.2813 10.1355 20.2813 10.9778 19.7126 11.3759L10.4265 17.8761C10.1592 18.0632 10 18.369 10 18.6953L10 19.8681C10 20.6847 10.9258 21.157 11.587 20.6777L24.4303 11.3663Z" fill="#67375C"/>
<path fill-rule="evenodd" clip-rule="evenodd" d="M14.8834 11.3663C15.4341 10.967 15.4341 10.1463 14.8834 9.74705L2.04009 0.435639C1.37896 -0.0436816 0.453125 0.428643 0.453125 1.24525L0.453125 2.41798C0.453125 2.74429 0.612336 3.05008 0.879662 3.23721L10.1657 9.73743C10.7344 10.1355 10.7344 10.9778 10.1657 11.3759L0.87966 17.8761C0.612333 18.0632 0.453122 18.369 0.453122 18.6953L0.453122 19.8681C0.453121 20.6847 1.37896 21.157 2.04009 20.6777L14.8834 11.3663Z" fill="#67375C"/>
</svg>
