<svg width="52" height="47" viewBox="0 0 52 47" fill="none" xmlns="http://www.w3.org/2000/svg">
<path d="M27.1683 0C24.9534 0 22.7384 0.168482 20.5235 0.503213C17.2289 3.41314 15.4704 8.45866 15.4704 13.3792C15.4704 15.6331 15.8377 17.82 16.5389 19.7391C17.2623 19.7056 17.9747 19.6833 18.6981 19.6833C20.7573 19.594 22.1708 19.6833 23.8849 19.9734C23.2059 17.9204 22.872 15.6554 22.872 13.3792C22.872 8.50329 24.3857 3.43769 27.5579 0.00892637H27.1683V0ZM30.385 0.127198C26.7899 2.96349 24.8755 8.2355 24.8755 13.3792C24.8755 15.8562 25.3095 18.244 26.1554 20.2858C27.4911 20.4978 28.8156 20.7656 30.1512 21.0892C30.7968 21.1115 31.4312 21.2454 32.0322 21.4685C30.6966 19.1031 29.9175 16.0347 29.9175 12.6763C29.9175 9.12812 30.7857 5.89573 32.266 3.48455C32.9561 2.35204 33.8131 1.38579 34.7814 0.68062C33.3122 0.423993 31.8542 0.237659 30.385 0.127198ZM17.2178 1.12581C16.8616 1.20838 16.4943 1.29429 16.127 1.38579L16.0825 1.39694L16.0491 1.4081C8.27908 2.70574 6.47931 14.3165 10.6509 20.3862C11.9198 20.1631 13.1887 19.9957 14.4575 19.873C13.8008 17.8534 13.4669 15.6219 13.4669 13.3792C13.4669 9.00538 14.6801 4.48651 17.2178 1.12581ZM38.4433 1.42819C36.8071 1.42819 35.2155 2.51495 33.98 4.53784C32.7335 6.56185 31.9209 9.46285 31.9209 12.6763C31.9209 15.8897 32.7335 18.7907 33.98 20.8102C35.2155 22.8409 36.8071 23.9232 38.4433 23.9232C40.0794 23.9232 41.6711 22.8409 42.9065 20.8102C44.1531 18.7907 44.9656 15.8897 44.9656 12.6763C44.9656 9.46285 44.1531 6.56185 42.9065 4.53784C41.6711 2.51495 40.0794 1.42819 38.4433 1.42819ZM38.4322 16.3806H38.4544C39.2558 16.3918 39.7455 16.972 40.0015 17.4964C40.2575 18.0208 40.38 18.6122 40.38 19.2705C40.38 19.9288 40.2575 20.5201 40.0015 21.0445C39.7455 21.569 39.2558 22.1492 38.4544 22.1603H38.4322C37.6308 22.1492 37.1411 21.569 36.8851 21.0445C36.6291 20.5201 36.5066 19.9288 36.5066 19.2705C36.5066 18.6122 36.6291 18.0208 36.8851 17.4964C37.1411 16.972 37.6308 16.3918 38.4322 16.3806ZM18.6981 21.6805C16.4943 21.6805 14.2794 21.8479 12.0645 22.1826C8.76992 25.0948 7.00577 30.1269 7.00577 35.0475C7.00577 39.7337 8.56846 44.1187 11.4968 46.4172C13.8453 46.7965 16.1938 46.9974 18.5312 46.9974C15.7486 44.1075 14.413 39.5998 14.413 35.0586C14.413 30.1716 15.9156 25.1059 19.0988 21.6805H18.6981ZM21.9259 21.8033C18.3197 24.6373 16.4053 29.9149 16.4053 35.0586C16.4053 40.0796 18.2084 44.7658 21.5809 46.9081C23.1614 46.7965 24.7419 46.6068 26.3224 46.3391C25.3541 45.625 24.5082 44.6654 23.8181 43.5385C22.3378 41.1173 21.4696 37.8927 21.4696 34.3445C21.4696 30.7964 22.3378 27.5718 23.8181 25.1617C24.5082 24.0348 25.3541 23.0641 26.3113 22.3612C24.8421 22.1045 23.384 21.9148 21.9259 21.8033ZM8.74766 22.8186C8.37925 22.8967 8.02419 22.986 7.66468 23.0752H7.61682L7.58232 23.0864C-2.52744 24.7712 -2.52744 43.929 7.58232 45.6138L7.61682 45.625H7.66468L8.07094 45.7254C5.99959 42.869 5.00788 38.975 5.00788 35.0475C5.00788 30.6848 6.21886 26.1659 8.74766 22.8186ZM29.9843 23.0976C28.3481 23.0976 26.7676 24.191 25.521 26.2106C24.2744 28.2301 23.4619 31.1311 23.4619 34.3445C23.4619 37.5691 24.2744 40.459 25.521 42.4897C26.7676 44.5092 28.3481 45.6027 29.9843 45.6027C31.6204 45.6027 33.2009 44.5092 34.4475 42.4897C35.6941 40.459 36.5066 37.5691 36.5066 34.3445C36.5066 31.1311 35.6941 28.2301 34.4475 26.2106C33.2009 24.191 31.6204 23.0976 29.9843 23.0976ZM45.4554 23.0976C44.4648 23.1087 43.4853 23.5104 42.5838 24.2914C42.5615 24.3138 42.5392 24.3361 42.517 24.3472C41.9716 24.8382 41.4596 25.463 41.0033 26.2217C39.7678 28.2413 38.9553 31.1311 38.9553 34.3445C38.9553 37.5579 39.7678 40.459 41.0144 42.4785C42.2499 44.5092 43.8415 45.5915 45.4776 45.5915C47.1138 45.5915 48.7054 44.5092 49.9409 42.4785C51.1875 40.459 52 37.5579 52 34.3445C52 31.1311 51.1875 28.2301 49.9409 26.2106C48.7054 24.1799 47.1138 23.0976 45.4776 23.0976H45.4554ZM29.9843 38.06C30.7857 38.06 31.2865 38.6402 31.5536 39.1647C31.8096 39.6891 31.9209 40.2804 31.9209 40.9499C31.9209 41.6082 31.8096 42.2107 31.5536 42.724C31.2865 43.2595 30.7857 43.8286 29.9843 43.8286C29.1829 43.8286 28.682 43.2595 28.426 42.724C28.1589 42.2107 28.0476 41.6082 28.0476 40.9499C28.0476 40.2804 28.1589 39.6891 28.426 39.1647C28.682 38.6402 29.1829 38.06 29.9843 38.06ZM45.4665 38.06H45.4888C46.2902 38.0712 46.7799 38.6514 47.0359 39.1758C47.2919 39.7002 47.4143 40.2916 47.4143 40.9499C47.4143 41.6082 47.2919 42.1996 47.0359 42.724C46.7799 43.2484 46.2902 43.8286 45.4888 43.8397H45.4665C44.6651 43.8286 44.1754 43.2484 43.9194 42.724C43.6634 42.1996 43.541 41.6082 43.541 40.9499C43.541 40.2916 43.6634 39.7002 43.9194 39.1758C44.1754 38.6514 44.6651 38.0712 45.4665 38.06ZM37.731 39.9345C37.3414 41.2623 36.8071 42.4785 36.1616 43.5385C35.2155 45.0559 34.0023 46.2833 32.611 46.9751C35.6719 47.0755 38.7438 46.8746 41.8046 46.3391C40.8474 45.6361 39.9904 44.6654 39.3003 43.5385C38.6548 42.4785 38.1205 41.2623 37.731 39.9345Z" fill="#ABA08D"/>
</svg>
