<svg width="19" height="35" viewBox="0 0 19 35" fill="none" xmlns="http://www.w3.org/2000/svg">
<path d="M9.80005 5.43994H17.48" stroke="white" stroke-width="2" stroke-linecap="round"/>
<path d="M13.6399 1.6001V9.2801" stroke="white" stroke-width="2" stroke-linecap="round"/>
<path d="M6.57287 35H7.93209H8.84854C9.8556 35 9.8556 33.5015 9.8556 33.5015L10.2233 12.7792C10.2233 12.7792 10.4056 11.4355 9.18335 9.99059C7.96107 8.54571 7.07915 9.01915 6.76866 7.67546C6.26866 6.17546 6.5 3 6.76883 0H3.73291C3.948 3 4.07815 5.24898 3.73291 7.67546C3.53741 9.04951 2.50517 8.54773 1.28125 9.99464C0.0573248 11.4415 0.242967 12.7832 0.242967 12.7832L0.691134 33.3993C0.691134 33.3993 0.600518 34.9989 1.51697 35H6.57615H6.57287Z" fill="white"/>
</svg>
