<svg width="60" height="60" viewBox="0 0 60 60" fill="none" xmlns="http://www.w3.org/2000/svg">
<g filter="url(#filter0_d_655_546)">
<circle cx="30" cy="27" r="25" fill="#67375C"/>
</g>
<path d="M26.8553 23.0923C27.2846 22.6737 27.5352 22.5044 27.8149 22.4454L26.8553 23.0923ZM26.8553 23.0923C26.4395 23.4976 26.3016 23.7107 26.119 24.2282C25.9364 24.7458 25.8451 25.3661 25.8082 26.325M26.8553 23.0923L25.8082 26.325M28.4759 21.6381L28.4761 21.6362C28.5226 21.1235 28.5286 20.9345 28.5325 20.1763M28.4759 21.6381L28.0325 20.1735M28.4759 21.6381C28.4616 21.7892 28.4488 21.9415 28.4396 22.0644C28.435 22.1259 28.4313 22.179 28.4289 22.2202C28.4277 22.2408 28.4268 22.2575 28.4263 22.2702C28.4257 22.2841 28.4257 22.2888 28.4257 22.2875V22.4225V22.83L28.0266 22.9122L27.9181 22.9346C27.9178 22.9347 27.9174 22.9348 27.9171 22.9348C27.7877 22.9623 27.6249 23.0402 27.2043 23.4503L27.2043 23.4503C27.0061 23.6436 26.8986 23.7678 26.8193 23.8901C26.741 24.011 26.6763 24.1516 26.5905 24.3946C26.4327 24.8418 26.344 25.4033 26.3078 26.3443L26.3078 26.3448C26.2966 26.6268 26.2887 28.6211 26.2887 31.1237C26.2887 32.9554 26.2878 34.0394 26.2836 34.694C26.2796 35.3355 26.2727 35.5895 26.2566 35.7357L25.7596 35.6807M28.4759 21.6381L28.4535 15.9982M28.5325 20.1763C28.5325 20.1763 28.5325 20.1762 28.5325 20.1761L28.0325 20.1735M28.5325 20.1763C28.5325 20.1764 28.5325 20.1765 28.5325 20.1766L28.0325 20.1735M28.5325 20.1763C28.5364 19.5532 28.5478 19.1538 28.5782 18.6635M28.0325 20.1735C28.0364 19.5437 28.0481 19.1346 28.0791 18.6323M28.5782 18.6635C28.5782 18.6636 28.5782 18.6637 28.5782 18.6638L28.0791 18.6323M28.5782 18.6635C28.5782 18.6634 28.5782 18.6633 28.5782 18.6632L28.0791 18.6323M28.5782 18.6635L28.0791 18.6323M28.4535 15.9982C28.4577 15.9976 28.4607 15.9971 28.4627 15.9969C28.4739 15.9995 28.5071 16.0082 28.5884 16.0348L28.5898 16.0352C28.8716 16.1263 29.1067 16.1344 29.4173 16.0934C29.4733 16.0865 29.6454 16.0741 29.8026 16.0666C29.8033 16.0666 29.8041 16.0665 29.8048 16.0665L30.0139 16.0583L30.0546 16.0696C29.9592 16.3378 29.9166 16.6515 29.892 17.0218L29.892 17.0222C29.8644 17.4412 29.8763 17.8881 29.9326 18.8333L29.9327 18.8351C29.9591 19.2523 29.9706 19.6772 29.9706 20.183C29.9706 20.8201 29.9786 21.0488 30.0209 21.5291C30.0461 21.8306 30.0728 22.1782 30.0802 22.2985C30.0803 22.2988 30.0803 22.299 30.0803 22.2993L30.0938 22.5281L30.116 22.903L30.4821 22.9862L30.5909 23.0109L30.5939 23.0116C30.7109 23.0375 30.9028 23.1344 31.2792 23.4939L31.6245 23.1323L31.2792 23.4939C31.5599 23.762 31.6577 23.8954 31.771 24.1232C32.0024 24.5911 32.1314 25.1485 32.184 26.0996L32.1842 26.1022C32.1842 26.1022 32.1842 26.1032 32.1843 26.1055L32.1847 26.1144L32.1856 26.1445C32.1863 26.1694 32.187 26.2022 32.1878 26.2428C32.1892 26.324 32.1907 26.4333 32.1922 26.5682C32.1952 26.8379 32.1982 27.2068 32.201 27.6506C32.2066 28.5378 32.2114 29.722 32.2143 31.0049L32.2143 31.0052C32.2182 32.404 32.2231 33.5634 32.2284 34.3827C32.2311 34.7922 32.2339 35.1176 32.2368 35.3455C32.2382 35.4593 32.2397 35.5502 32.2412 35.6156C32.2419 35.6481 32.2427 35.6763 32.2436 35.6986C32.2436 35.6991 32.2437 35.6998 32.2437 35.7006C32.2441 35.7116 32.2455 35.7496 32.2506 35.7852C32.249 35.7737 32.249 35.7755 32.25 35.8C32.2507 35.8189 32.252 35.8513 32.2534 35.9014C32.256 35.9951 32.2587 36.1249 32.2613 36.2824C32.2663 36.5969 32.2707 37.0174 32.2726 37.4714L32.2726 37.4716L32.2796 38.95C32.239 38.9631 32.1908 38.9777 32.1376 38.9929C32.0086 39.0296 31.8637 39.0657 31.7471 39.0892L31.7466 39.0893C31.388 39.1621 30.9625 39.2191 30.1094 39.3064C29.9691 39.3204 29.5802 39.3286 28.7319 39.3286C27.5895 39.3286 27.5688 39.3252 27.3747 39.293C27.3719 39.2925 27.3692 39.292 27.3664 39.2916L27.3639 39.2912L27.3639 39.2912C27.0113 39.2345 26.7075 39.1518 26.5995 39.1051C26.5061 39.0628 26.3828 38.9813 26.2305 38.8395V37.5016C26.2305 36.2425 26.2371 35.9136 26.2566 35.7351L25.7596 35.6807M28.4535 15.9982C28.5017 16.1354 28.537 16.2833 28.5654 16.441L28.4535 15.9982ZM25.7596 35.6807C25.7849 35.4524 25.7887 34.7883 25.7887 31.1237C25.7887 28.6292 25.7965 26.6199 25.8082 26.325M25.7596 35.6807C25.7363 35.8938 25.7305 36.2591 25.7305 37.5016V39.0542M25.8082 26.325L26.2109 38.8212C26.2108 38.8211 26.2107 38.821 26.2107 38.8209L26.0751 38.692L25.7305 39.0542M25.7305 39.0542H25.9893L27.2846 39.7849C26.9174 39.7259 26.5619 39.6345 26.3968 39.5622C26.2317 39.488 26.0549 39.3624 25.8665 39.1836L25.7305 39.0542ZM30.5929 22.4987L30.7017 22.5234L30.5929 22.4987ZM30.5929 22.4987L30.5793 22.2684L30.5929 22.4987ZM30.5376 16.205C30.4688 16.1858 30.3799 16.1608 30.2862 16.1339L30.2883 16.1345L30.3459 15.9269M30.5376 16.205L30.2841 16.1333L30.3445 15.9227M30.5376 16.205C30.5401 16.1985 30.5426 16.1921 30.5452 16.1857C30.4882 16.1488 30.42 16.0881 30.3725 15.9916C30.3617 15.9697 30.3529 15.9481 30.3459 15.9269M30.5376 16.205L30.422 15.6527M30.3459 15.9269C30.3454 15.9255 30.345 15.9241 30.3445 15.9227M30.3459 15.9269L30.422 15.6527M30.3445 15.9227L30.422 15.6527M30.3445 15.9227C30.3062 15.8036 30.3231 15.6991 30.3444 15.6312L30.3023 15.6195C30.2134 15.7294 30.1438 15.8493 30.089 15.9807M30.422 15.6527L30.0723 15.5556L30.089 15.9807M30.089 15.9807L30.0919 16.0553L30.0594 16.0565C30.0687 16.0308 30.0786 16.0056 30.089 15.9807ZM30.7833 15.8327C30.7845 15.8314 30.7856 15.8301 30.7867 15.8289L30.8066 15.7611L30.7833 15.8327ZM31.846 39.5794C32.1102 39.5261 32.4773 39.4214 32.5881 39.3682L30.1597 39.8039C31.0145 39.7164 31.4613 39.6574 31.846 39.5794ZM28.458 15.9959C28.4581 15.996 28.4587 15.9961 28.4598 15.9963L28.458 15.9959Z" fill="white" stroke="white"/>
<path d="M34.686 17.5718H40.3074" stroke="white" stroke-width="2.5" stroke-linecap="round"/>
<path d="M37.4968 14.7612V20.3826" stroke="white" stroke-width="2.5" stroke-linecap="round"/>
<defs>
<filter id="filter0_d_655_546" x="0" y="0" width="60" height="60" filterUnits="userSpaceOnUse" color-interpolation-filters="sRGB">
<feFlood flood-opacity="0" result="BackgroundImageFix"/>
<feColorMatrix in="SourceAlpha" type="matrix" values="0 0 0 0 0 0 0 0 0 0 0 0 0 0 0 0 0 0 127 0" result="hardAlpha"/>
<feOffset dy="3"/>
<feGaussianBlur stdDeviation="2.5"/>
<feComposite in2="hardAlpha" operator="out"/>
<feColorMatrix type="matrix" values="0 0 0 0 0 0 0 0 0 0 0 0 0 0 0 0 0 0 0.17 0"/>
<feBlend mode="normal" in2="BackgroundImageFix" result="effect1_dropShadow_655_546"/>
<feBlend mode="normal" in="SourceGraphic" in2="effect1_dropShadow_655_546" result="shape"/>
</filter>
</defs>
</svg>
