<svg width="35" height="32" viewBox="0 0 35 32" fill="none" xmlns="http://www.w3.org/2000/svg">
<path d="M18.2864 0C16.7955 0 15.3047 0.113401 13.8139 0.338701C11.5964 2.29731 10.4127 5.69333 10.4127 9.00523C10.4127 10.5223 10.66 11.9942 11.1319 13.2859C11.6189 13.2634 12.0983 13.2484 12.5853 13.2484C13.9712 13.1883 14.9227 13.2484 16.0764 13.4436C15.6194 12.0618 15.3946 10.5373 15.3946 9.00523C15.3946 5.72337 16.4135 2.31383 18.5486 0.00600813H18.2864V0ZM20.4514 0.0856139C18.0316 1.99465 16.7431 5.54313 16.7431 9.00523C16.7431 10.6725 17.0353 12.2796 17.6046 13.6539C18.5036 13.7966 19.3951 13.9768 20.2941 14.1946C20.7286 14.2097 21.1556 14.2998 21.5602 14.45C20.6612 12.8579 20.1368 10.7926 20.1368 8.5321C20.1368 6.14392 20.7211 3.96828 21.7175 2.34537C22.182 1.58311 22.7588 0.932741 23.4106 0.45811C22.4217 0.28538 21.4403 0.159963 20.4514 0.0856139ZM11.5889 0.757758C11.3492 0.813332 11.102 0.871159 10.8547 0.932741L10.8248 0.940251L10.8023 0.947761C5.57246 1.82117 4.36107 9.63607 7.1689 13.7215C8.02294 13.5713 8.87698 13.4587 9.73101 13.376C9.28901 12.0167 9.06426 10.5147 9.06426 9.00523C9.06426 6.06132 9.88084 3.01977 11.5889 0.757758ZM25.8753 0.961279C24.774 0.961279 23.7027 1.69275 22.8712 3.05431C22.0321 4.41663 21.4853 6.36922 21.4853 8.5321C21.4853 10.695 22.0321 12.6476 22.8712 14.0069C23.7027 15.3737 24.774 16.1022 25.8753 16.1022C26.9766 16.1022 28.0478 15.3737 28.8794 14.0069C29.7185 12.6476 30.2653 10.695 30.2653 8.5321C30.2653 6.36922 29.7185 4.41663 28.8794 3.05431C28.0478 1.69275 26.9766 0.961279 25.8753 0.961279ZM25.8678 11.0254H25.8828C26.4222 11.0329 26.7518 11.4234 26.9241 11.7764C27.0964 12.1294 27.1788 12.5274 27.1788 12.9705C27.1788 13.4136 27.0964 13.8116 26.9241 14.1646C26.7518 14.5176 26.4222 14.9081 25.8828 14.9156H25.8678C25.3284 14.9081 24.9988 14.5176 24.8265 14.1646C24.6542 13.8116 24.5718 13.4136 24.5718 12.9705C24.5718 12.5274 24.6542 12.1294 24.8265 11.7764C24.9988 11.4234 25.3284 11.0329 25.8678 11.0254ZM12.5853 14.5927C11.102 14.5927 9.61115 14.7053 8.12033 14.9306C5.90283 16.8907 4.71542 20.2777 4.71542 23.5896C4.71542 26.7438 5.76724 29.6953 7.73826 31.2423C9.31898 31.4977 10.8997 31.6328 12.4729 31.6328C10.6 29.6878 9.70105 26.6537 9.70105 23.5971C9.70105 20.3078 10.7124 16.8982 12.855 14.5927H12.5853ZM14.7578 14.6753C12.3306 16.5828 11.042 20.135 11.042 23.5971C11.042 26.9766 12.2557 30.1308 14.5256 31.5728C15.5894 31.4977 16.6532 31.37 17.717 31.1898C17.0652 30.7091 16.4959 30.0633 16.0314 29.3047C15.035 27.6751 14.4507 25.5047 14.4507 23.1165C14.4507 20.7283 15.035 18.5579 16.0314 16.9358C16.4959 16.1773 17.0652 15.5239 17.7095 15.0508C16.7206 14.878 15.7392 14.7504 14.7578 14.6753ZM5.88785 15.3587C5.63988 15.4113 5.4009 15.4713 5.15892 15.5314H5.12671L5.10348 15.5389C-1.70116 16.6729 -1.70116 29.5676 5.10348 30.7016L5.12671 30.7091H5.15892L5.43236 30.7767C4.03819 28.8541 3.37069 26.2332 3.37069 23.5896C3.37069 20.6532 4.18577 17.6117 5.88785 15.3587ZM20.1817 15.5464C19.0805 15.5464 18.0167 16.2824 17.1776 17.6417C16.3386 19.001 15.7917 20.9536 15.7917 23.1165C15.7917 25.2869 16.3386 27.232 17.1776 28.5988C18.0167 29.9581 19.0805 30.6941 20.1817 30.6941C21.283 30.6941 22.3468 29.9581 23.1858 28.5988C24.0249 27.232 24.5718 25.2869 24.5718 23.1165C24.5718 20.9536 24.0249 19.001 23.1858 17.6417C22.3468 16.2824 21.283 15.5464 20.1817 15.5464ZM30.595 15.5464C29.9282 15.5539 29.269 15.8243 28.6622 16.35C28.6472 16.365 28.6322 16.38 28.6172 16.3876C28.2501 16.718 27.9055 17.1386 27.5983 17.6492C26.7668 19.0085 26.2199 20.9536 26.2199 23.1165C26.2199 25.2794 26.7668 27.232 27.6058 28.5913C28.4374 29.9581 29.5087 30.6866 30.61 30.6866C31.7112 30.6866 32.7825 29.9581 33.6141 28.5913C34.4531 27.232 35 25.2794 35 23.1165C35 20.9536 34.4531 19.001 33.6141 17.6417C32.7825 16.2749 31.7112 15.5464 30.61 15.5464H30.595ZM20.1817 25.6173C20.7211 25.6173 21.0582 26.0079 21.238 26.3608C21.4103 26.7138 21.4853 27.1118 21.4853 27.5624C21.4853 28.0055 21.4103 28.4111 21.238 28.7565C21.0582 29.117 20.7211 29.5 20.1817 29.5C19.6423 29.5 19.3052 29.117 19.1329 28.7565C18.9531 28.4111 18.8782 28.0055 18.8782 27.5624C18.8782 27.1118 18.9531 26.7138 19.1329 26.3608C19.3052 26.0079 19.6423 25.6173 20.1817 25.6173ZM30.6025 25.6173H30.6174C31.1568 25.6248 31.4865 26.0154 31.6588 26.3683C31.8311 26.7213 31.9135 27.1193 31.9135 27.5624C31.9135 28.0055 31.8311 28.4035 31.6588 28.7565C31.4865 29.1095 31.1568 29.5 30.6174 29.5075H30.6025C30.0631 29.5 29.7334 29.1095 29.5611 28.7565C29.3888 28.4035 29.3064 28.0055 29.3064 27.5624C29.3064 27.1193 29.3888 26.7213 29.5611 26.3683C29.7334 26.0154 30.0631 25.6248 30.6025 25.6173ZM25.3958 26.879C25.1336 27.7727 24.774 28.5913 24.3395 29.3047C23.7027 30.3261 22.8862 31.1522 21.9497 31.6178C24.0099 31.6854 26.0776 31.5502 28.1377 31.1898C27.4935 30.7166 26.9166 30.0633 26.4521 29.3047C26.0176 28.5913 25.658 27.7727 25.3958 26.879Z" fill="white"/>
</svg>
