<svg width="22" height="20" viewBox="0 0 22 20" fill="none" xmlns="http://www.w3.org/2000/svg">
<path fill-rule="evenodd" clip-rule="evenodd" d="M20.2857 10.6243C22.7048 8.12784 22.563 3.99433 19.8646 1.69124C17.5823 -0.253704 14.2222 0.0256293 12.0497 2.07536C11.9809 2.14034 11.9132 2.20709 11.8468 2.27561L11.0003 3.14786L10.1538 2.27561C10.0875 2.20703 10.0199 2.14021 9.95108 2.07518C7.78229 0.0256128 4.41826 -0.253646 2.13603 1.69124C-0.562353 3.99433 -0.704147 8.12784 1.71065 10.6243L10.0249 19.2093C10.562 19.7636 11.4343 19.7636 11.9714 19.2093L20.2857 10.6243ZM10.9982 18.058L19.2082 9.58074C21.0334 7.69719 20.9213 4.56577 18.8913 2.83263C17.209 1.39928 14.601 1.58914 12.9239 3.31954L11.0003 5.30172L9.07568 3.31847C7.4038 1.58997 4.79211 1.39877 3.10918 2.83273M10.9982 18.058L2.78879 9.58139C0.966857 7.69786 1.07936 4.56605 3.10918 2.83273" fill="white"/>
</svg>
