<svg width="22" height="20" viewBox="0 0 22 20" fill="none" xmlns="http://www.w3.org/2000/svg">
<path d="M12.3854 2.79757L12.385 2.79793L11.5385 3.67017L11.0003 4.22479L10.4621 3.67017L9.61562 2.79793L9.61476 2.79704C7.70035 0.817789 4.64144 0.541714 2.62266 2.26194C0.258513 4.28001 0.131318 7.91244 2.24941 10.1025L12.3854 2.79757ZM12.3854 2.79757C14.3044 0.817442 17.3592 0.54199 19.3777 2.26171C21.7422 4.27978 21.8693 7.91228 19.7471 10.1024L19.7469 10.1025L11.4328 18.6874C11.4327 18.6874 11.4327 18.6875 11.4326 18.6875C11.1903 18.9375 10.8061 18.9375 10.5637 18.6875C10.5637 18.6875 10.5636 18.6874 10.5636 18.6874L2.24972 10.1028L12.3854 2.79757Z" stroke="white" stroke-width="1.5"/>
</svg>
