<svg width="33" height="43" viewBox="0 0 33 43" fill="none" xmlns="http://www.w3.org/2000/svg">
<path d="M28.875 5.375H22C22 2.41035 19.5336 0 16.5 0C13.4664 0 11 2.41035 11 5.375H4.125C1.84766 5.375 0 7.18066 0 9.40625V38.9688C0 41.1943 1.84766 43 4.125 43H28.875C31.1523 43 33 41.1943 33 38.9688V9.40625C33 7.18066 31.1523 5.375 28.875 5.375ZM8.25 35.6094C7.10703 35.6094 6.1875 34.7107 6.1875 33.5938C6.1875 32.4768 7.10703 31.5781 8.25 31.5781C9.39297 31.5781 10.3125 32.4768 10.3125 33.5938C10.3125 34.7107 9.39297 35.6094 8.25 35.6094ZM8.25 27.5469C7.10703 27.5469 6.1875 26.6482 6.1875 25.5312C6.1875 24.4143 7.10703 23.5156 8.25 23.5156C9.39297 23.5156 10.3125 24.4143 10.3125 25.5312C10.3125 26.6482 9.39297 27.5469 8.25 27.5469ZM8.25 19.4844C7.10703 19.4844 6.1875 18.5857 6.1875 17.4688C6.1875 16.3518 7.10703 15.4531 8.25 15.4531C9.39297 15.4531 10.3125 16.3518 10.3125 17.4688C10.3125 18.5857 9.39297 19.4844 8.25 19.4844ZM16.5 3.35938C17.643 3.35938 18.5625 4.25801 18.5625 5.375C18.5625 6.49199 17.643 7.39062 16.5 7.39062C15.357 7.39062 14.4375 6.49199 14.4375 5.375C14.4375 4.25801 15.357 3.35938 16.5 3.35938ZM27.5 34.2656C27.5 34.6352 27.1906 34.9375 26.8125 34.9375H14.4375C14.0594 34.9375 13.75 34.6352 13.75 34.2656V32.9219C13.75 32.5523 14.0594 32.25 14.4375 32.25H26.8125C27.1906 32.25 27.5 32.5523 27.5 32.9219V34.2656ZM27.5 26.2031C27.5 26.5727 27.1906 26.875 26.8125 26.875H14.4375C14.0594 26.875 13.75 26.5727 13.75 26.2031V24.8594C13.75 24.4898 14.0594 24.1875 14.4375 24.1875H26.8125C27.1906 24.1875 27.5 24.4898 27.5 24.8594V26.2031ZM27.5 18.1406C27.5 18.5102 27.1906 18.8125 26.8125 18.8125H14.4375C14.0594 18.8125 13.75 18.5102 13.75 18.1406V16.7969C13.75 16.4273 14.0594 16.125 14.4375 16.125H26.8125C27.1906 16.125 27.5 16.4273 27.5 16.7969V18.1406Z" fill="#ABA08D"/>
</svg>
