<svg width="18" height="48" viewBox="0 0 18 48" fill="none" xmlns="http://www.w3.org/2000/svg">
<path id="Vector" d="M6.3 0C5.82891 0 5.34727 0.176581 5.00625 0.541014C4.66523 0.905447 4.5 1.42016 4.5 1.92361V5.47026C4.44727 5.65811 4.44727 5.85348 4.5 6.04133V12.8341C3.83203 13.1309 2.98125 13.6043 2.10938 14.5473C0.973828 15.7721 0 17.7182 0 20.4984V45.2949C0 46.7714 1.14961 48 2.53125 48H15.4688C16.8504 48 18 46.7714 18 45.2949V20.4984C18 17.7633 17.0227 15.8134 15.8906 14.5773C15.0258 13.6306 14.175 13.1722 13.5 12.8641V5.95116C13.5246 5.82342 13.5246 5.68817 13.5 5.56043V1.92361C13.5 1.42016 13.3348 0.905447 12.9937 0.541014C12.6527 0.176581 12.1711 0 11.7 0H6.3ZM6.3 1.92361H11.7V4.80902H6.3V1.92361ZM6.3 6.73262H11.7V13.4652C11.7035 13.8748 11.9531 14.2392 12.3187 14.3669C12.7652 14.5247 13.7742 15.0019 14.625 15.9299C15.5 17 15.5 17 15.5 17L16.2 45.2949C16.2 45.2949 16.2 45.2949 15.4688 45.3743C14.7375 45.4537 12.5 45.6965 12.5 45.6965L9 46.0764L2.73239 45.3961L1.8 45.2949C2.07337 34.2451 2.5 17 2.5 17C2.5 17 2.53125 16.7827 3.375 15.8698C4.21875 14.9568 5.21367 14.5322 5.68125 14.3669C6.04687 14.2392 6.29648 13.8748 6.3 13.4652V6.73262ZM2.5 17H9H15.5L16.2 45.2949L9 46.0764C9 46.0764 4.61177 45.6001 1.8 45.2949C2.07337 34.2451 2.5 17 2.5 17Z" fill="#ABA08D"/>
</svg>
