<svg width="23" height="22" viewBox="0 0 23 22" fill="none" xmlns="http://www.w3.org/2000/svg">
<path d="M3.47909 6.41667V15.5833C3.47909 17.9841 5.4325 19.9375 7.83325 19.9375H11.4999C11.8794 19.9375 12.1874 19.6295 12.1874 19.25C12.1874 18.8705 11.8794 18.5625 11.4999 18.5625H7.83325C6.19059 18.5625 4.85409 17.226 4.85409 15.5833V6.41667C4.85409 4.774 6.19059 3.4375 7.83325 3.4375H11.4999C11.8794 3.4375 12.1874 3.1295 12.1874 2.75C12.1874 2.3705 11.8794 2.0625 11.4999 2.0625H7.83325C5.4325 2.0625 3.47909 4.01592 3.47909 6.41667ZM9.18075 10.5141L12.8474 6.84747C13.116 6.57889 13.5514 6.57889 13.82 6.84747C14.0886 7.11606 14.0886 7.55151 13.82 7.82009L11.3267 10.3134H18.8333C19.2128 10.3134 19.5208 10.6214 19.5208 11.0009C19.5208 11.3804 19.2128 11.6884 18.8333 11.6884H11.3267L13.82 14.1817C14.0886 14.4503 14.0886 14.8857 13.82 15.1543C13.6862 15.2882 13.5102 15.356 13.3342 15.356C13.1582 15.356 12.9822 15.2891 12.8483 15.1543L9.18168 11.4877C8.91218 11.2172 8.91217 10.7827 9.18075 10.5141Z" fill="white"/>
</svg>
