<svg width="24" height="24" viewBox="0 0 24 24" fill="none" xmlns="http://www.w3.org/2000/svg">
<path d="M4.5 1.5H7.5C8.32828 1.5 9 2.17172 9 3C9 3.82828 8.32828 4.5 7.5 4.5H4.5C3.67172 4.5 3 5.17172 3 6V18C3 18.8283 3.67172 19.5 4.5 19.5H7.5C8.32828 19.5 9 20.1717 9 21C9 21.8283 8.32828 22.5 7.5 22.5H4.5C2.01469 22.5 0 20.4853 0 18V6C0 3.51469 2.01562 1.5 4.5 1.5ZM7.94062 10.9406L13.9406 4.94063C14.527 4.35422 15.4762 4.35516 16.0617 4.94063C16.6477 5.52656 16.6477 6.47578 16.0617 7.06172L12.6187 10.5H22.5C23.3292 10.5 24 11.1703 24 12C24 12.8297 23.3292 13.5 22.5 13.5H12.6187L16.0584 16.9397C16.6444 17.5256 16.6444 18.4748 16.0584 19.0608C15.4725 19.6467 14.5233 19.6467 13.9373 19.0608L7.93734 13.0608C7.35469 12.4734 7.35469 11.5266 7.94062 10.9406Z" fill="white"/>
</svg>
