<svg width="24" height="24" viewBox="0 0 24 24" fill="none" xmlns="http://www.w3.org/2000/svg">
<path d="M7.5 19.5H4.5C3.67172 19.5 3 18.8283 3 18V6C3 5.17172 3.67172 4.5 4.5 4.5H7.5C8.32828 4.5 9 3.82828 9 3C9 2.17172 8.32969 1.5 7.5 1.5H4.5C2.01469 1.5 0 3.51469 0 6V18C0 20.4853 2.01469 22.5 4.5 22.5H7.5C8.32828 22.5 9 21.8283 9 21C9 20.1717 8.32969 19.5 7.5 19.5ZM23.5594 10.9406L17.5594 4.94063C16.973 4.35422 16.0238 4.35516 15.4383 4.94063C14.8523 5.52656 14.8523 6.47578 15.4383 7.06172L18.8812 10.5H9C8.17031 10.5 7.5 11.1703 7.5 12C7.5 12.8297 8.17078 13.5 9 13.5H18.8812L15.4416 16.9397C14.8556 17.5256 14.8556 18.4748 15.4416 19.0608C16.0275 19.6467 16.9767 19.6467 17.5627 19.0608L23.5627 13.0608C24.1453 12.4734 24.1453 11.5266 23.5594 10.9406Z" fill="white"/>
</svg>
