<svg width="25" height="26" viewBox="0 0 25 26" fill="none" xmlns="http://www.w3.org/2000/svg">
<path d="M24.4292 23.3337L23.0602 24.7189C22.6055 25.1791 21.8702 25.1791 21.4203 24.7189L16.5925 19.8388C16.3748 19.6185 16.2539 19.3199 16.2539 19.0067V18.2088C14.5462 19.5598 12.3984 20.3625 10.0619 20.3625C4.50368 20.3625 0 15.8054 0 10.1813C0 4.5571 4.50368 0 10.0619 0C15.6202 0 20.1238 4.5571 20.1238 10.1813C20.1238 12.5455 19.3305 14.7188 17.9954 16.4467H18.7839C19.0935 16.4467 19.3885 16.569 19.6062 16.7893L24.4292 21.6695C24.8791 22.1296 24.8791 22.8736 24.4292 23.3337ZM16.6409 10.1813C16.6409 6.50035 13.6997 3.52428 10.0619 3.52428C6.42415 3.52428 3.48297 6.50035 3.48297 10.1813C3.48297 13.8622 6.42415 16.8382 10.0619 16.8382C13.6997 16.8382 16.6409 13.8622 16.6409 10.1813Z" fill="#ABA08D" fill-opacity="0.75"/>
</svg>
