<svg width="15" height="16" viewBox="0 0 15 16" fill="none" xmlns="http://www.w3.org/2000/svg">
<g clip-path="url(#clip0_695_357)">
<path d="M1.25 7C0.5625 7 0 7.5625 0 8.25C0 8.9375 0.5625 9.5 1.25 9.5C1.9375 9.5 2.5 8.9375 2.5 8.25C2.5 7.5625 1.9375 7 1.25 7ZM13.75 7C13.0625 7 12.5 7.5625 12.5 8.25C12.5 8.9375 13.0625 9.5 13.75 9.5C14.4375 9.5 15 8.9375 15 8.25C15 7.5625 14.4375 7 13.75 7ZM7.5 7C6.8125 7 6.25 7.5625 6.25 8.25C6.25 8.9375 6.8125 9.5 7.5 9.5C8.1875 9.5 8.75 8.9375 8.75 8.25C8.75 7.5625 8.1875 7 7.5 7Z" fill="white"/>
</g>
<defs>
<clipPath id="clip0_695_357">
<rect width="15" height="16" fill="white"/>
</clipPath>
</defs>
</svg>
