<svg width="23" height="23" viewBox="0 0 23 23" fill="none" xmlns="http://www.w3.org/2000/svg">
<path d="M5.8152 11.5C5.8152 12.7371 4.79882 13.75 3.5326 13.75C2.26638 13.75 1.25 12.7371 1.25 11.5C1.25 10.2629 2.26638 9.25 3.5326 9.25C4.79882 9.25 5.8152 10.2629 5.8152 11.5ZM14.163 11.5C14.163 12.7371 13.1466 13.75 11.8804 13.75C10.6142 13.75 9.5978 12.7371 9.5978 11.5C9.5978 10.2629 10.6142 9.25 11.8804 9.25C13.1466 9.25 14.163 10.2629 14.163 11.5ZM22.25 11.5C22.25 12.7371 21.2336 13.75 19.9674 13.75C18.7012 13.75 17.6848 12.7371 17.6848 11.5C17.6848 10.2629 18.7012 9.25 19.9674 9.25C21.2336 9.25 22.25 10.2629 22.25 11.5Z" fill="white" stroke="white"/>
</svg>
