<svg width="23" height="7" viewBox="0 0 23 7" fill="none" xmlns="http://www.w3.org/2000/svg">
<path d="M5.8152 3.5C5.8152 4.7371 4.79882 5.75 3.5326 5.75C2.26638 5.75 1.25 4.7371 1.25 3.5C1.25 2.2629 2.26638 1.25 3.5326 1.25C4.79882 1.25 5.8152 2.2629 5.8152 3.5ZM14.163 3.5C14.163 4.7371 13.1466 5.75 11.8804 5.75C10.6142 5.75 9.5978 4.7371 9.5978 3.5C9.5978 2.2629 10.6142 1.25 11.8804 1.25C13.1466 1.25 14.163 2.2629 14.163 3.5ZM22.25 3.5C22.25 4.7371 21.2336 5.75 19.9674 5.75C18.7012 5.75 17.6848 4.7371 17.6848 3.5C17.6848 2.2629 18.7012 1.25 19.9674 1.25C21.2336 1.25 22.25 2.2629 22.25 3.5Z" fill="white" stroke="white"/>
</svg>
