<svg width="20" height="20" viewBox="0 0 20 20" fill="none" xmlns="http://www.w3.org/2000/svg">
<mask id="path-1-inside-1_626_119" fill="white">
<path fill-rule="evenodd" clip-rule="evenodd" d="M18.75 2.5C18.75 2.16848 18.6183 1.85054 18.3839 1.61612C18.1495 1.3817 17.8315 1.25 17.5 1.25H2.5C2.16848 1.25 1.85054 1.3817 1.61612 1.61612C1.3817 1.85054 1.25 2.16848 1.25 2.5V17.5C1.25 17.8315 1.3817 18.1495 1.61612 18.3839C1.85054 18.6183 2.16848 18.75 2.5 18.75H17.5C17.8315 18.75 18.1495 18.6183 18.3839 18.3839C18.6183 18.1495 18.75 17.8315 18.75 17.5V2.5ZM0 2.5C0 1.83696 0.263392 1.20107 0.732233 0.732233C1.20107 0.263392 1.83696 0 2.5 0L17.5 0C18.163 0 18.7989 0.263392 19.2678 0.732233C19.7366 1.20107 20 1.83696 20 2.5V17.5C20 18.163 19.7366 18.7989 19.2678 19.2678C18.7989 19.7366 18.163 20 17.5 20H2.5C1.83696 20 1.20107 19.7366 0.732233 19.2678C0.263392 18.7989 0 18.163 0 17.5V2.5ZM5.625 9.375C5.45924 9.375 5.30027 9.44085 5.18306 9.55806C5.06585 9.67527 5 9.83424 5 10C5 10.1658 5.06585 10.3247 5.18306 10.4419C5.30027 10.5592 5.45924 10.625 5.625 10.625H12.8663L10.1825 13.3075C10.1244 13.3656 10.0783 13.4346 10.0468 13.5105C10.0154 13.5864 9.99921 13.6678 9.99921 13.75C9.99921 13.8322 10.0154 13.9136 10.0468 13.9895C10.0783 14.0654 10.1244 14.1344 10.1825 14.1925C10.2406 14.2506 10.3096 14.2967 10.3855 14.3282C10.4614 14.3596 10.5428 14.3758 10.625 14.3758C10.7072 14.3758 10.7886 14.3596 10.8645 14.3282C10.9404 14.2967 11.0094 14.2506 11.0675 14.1925L14.8175 10.4425C14.8757 10.3844 14.9219 10.3155 14.9534 10.2395C14.9849 10.1636 15.0011 10.0822 15.0011 10C15.0011 9.91779 14.9849 9.83639 14.9534 9.76046C14.9219 9.68453 14.8757 9.61556 14.8175 9.5575L11.0675 5.8075C11.0094 5.74939 10.9404 5.70329 10.8645 5.67185C10.7886 5.6404 10.7072 5.62421 10.625 5.62421C10.5428 5.62421 10.4614 5.6404 10.3855 5.67185C10.3096 5.70329 10.2406 5.74939 10.1825 5.8075C10.1244 5.86561 10.0783 5.9346 10.0468 6.01052C10.0154 6.08644 9.99921 6.16782 9.99921 6.25C9.99921 6.33218 10.0154 6.41356 10.0468 6.48948C10.0783 6.5654 10.1244 6.63439 10.1825 6.6925L12.8663 9.375H5.625Z"/>
</mask>
<path d="M2.5 1.25L2.5 -0.75L2.5 1.25ZM1.25 2.5H-0.75H1.25ZM1.25 17.5H-0.75H1.25ZM0 2.5H-2H0ZM2.5 0L2.5 -2L2.5 0ZM0 17.5H-2H0ZM5 10L7 10L5 10ZM12.8663 10.625L14.2801 12.0395L17.6963 8.625H12.8663V10.625ZM10.1825 13.3075L8.76862 11.893L8.76829 11.8933L10.1825 13.3075ZM9.99921 13.75L11.9992 13.75L9.99921 13.75ZM10.625 14.3758V12.3758V14.3758ZM14.8175 10.4425L13.4051 9.0265L13.4033 9.02829L14.8175 10.4425ZM14.8175 9.5575L13.4033 10.9717L13.4051 10.9735L14.8175 9.5575ZM9.99921 6.25L11.9992 6.25L9.99921 6.25ZM10.1825 6.6925L8.76829 8.10671L8.76862 8.10704L10.1825 6.6925ZM12.8663 9.375V11.375H17.6963L14.2801 7.96046L12.8663 9.375ZM20.75 2.5C20.75 1.63805 20.4076 0.811395 19.7981 0.201903L16.9697 3.03033C16.829 2.88968 16.75 2.69891 16.75 2.5H20.75ZM19.7981 0.201903C19.1886 -0.40759 18.362 -0.75 17.5 -0.75V3.25C17.3011 3.25 17.1103 3.17098 16.9697 3.03033L19.7981 0.201903ZM17.5 -0.75H2.5V3.25H17.5V-0.75ZM2.5 -0.75C1.63805 -0.75 0.811396 -0.407591 0.201903 0.201903L3.03033 3.03033C2.88968 3.17098 2.69891 3.25 2.5 3.25L2.5 -0.75ZM0.201903 0.201903C-0.407591 0.811396 -0.75 1.63805 -0.75 2.5L3.25 2.5C3.25 2.69891 3.17098 2.88968 3.03033 3.03033L0.201903 0.201903ZM-0.75 2.5V17.5H3.25V2.5H-0.75ZM-0.75 17.5C-0.75 18.362 -0.40759 19.1886 0.201903 19.7981L3.03033 16.9697C3.17098 17.1103 3.25 17.3011 3.25 17.5H-0.75ZM0.201903 19.7981C0.811395 20.4076 1.63805 20.75 2.5 20.75V16.75C2.69891 16.75 2.88968 16.829 3.03033 16.9697L0.201903 19.7981ZM2.5 20.75H17.5V16.75H2.5V20.75ZM17.5 20.75C18.362 20.75 19.1886 20.4076 19.7981 19.7981L16.9697 16.9697C17.1103 16.829 17.3011 16.75 17.5 16.75V20.75ZM19.7981 19.7981C20.4076 19.1886 20.75 18.362 20.75 17.5H16.75C16.75 17.3011 16.829 17.1103 16.9697 16.9697L19.7981 19.7981ZM20.75 17.5V2.5H16.75V17.5H20.75ZM2 2.5C2 2.36739 2.05268 2.24021 2.14645 2.14645L-0.68198 -0.68198C-1.52589 0.161933 -2 1.30653 -2 2.5L2 2.5ZM2.14645 2.14645C2.24021 2.05268 2.36739 2 2.5 2L2.5 -2C1.30653 -2 0.161933 -1.52589 -0.68198 -0.68198L2.14645 2.14645ZM2.5 2H17.5V-2L2.5 -2V2ZM17.5 2C17.6326 2 17.7598 2.05268 17.8536 2.14645L20.682 -0.68198C19.8381 -1.52589 18.6935 -2 17.5 -2V2ZM17.8536 2.14645C17.9473 2.24022 18 2.36739 18 2.5H22C22 1.30652 21.5259 0.161932 20.682 -0.68198L17.8536 2.14645ZM18 2.5V17.5H22V2.5H18ZM18 17.5C18 17.6326 17.9473 17.7598 17.8536 17.8536L20.682 20.682C21.5259 19.8381 22 18.6935 22 17.5H18ZM17.8536 17.8536C17.7598 17.9473 17.6326 18 17.5 18V22C18.6935 22 19.8381 21.5259 20.682 20.682L17.8536 17.8536ZM17.5 18H2.5V22H17.5V18ZM2.5 18C2.36739 18 2.24022 17.9473 2.14645 17.8536L-0.68198 20.682C0.161932 21.5259 1.30652 22 2.5 22V18ZM2.14645 17.8536C2.05268 17.7598 2 17.6326 2 17.5H-2C-2 18.6935 -1.52589 19.8381 -0.68198 20.682L2.14645 17.8536ZM2 17.5V2.5H-2V17.5H2ZM5.625 7.375C4.92881 7.375 4.26113 7.65156 3.76884 8.14384L6.59727 10.9723C6.33941 11.2301 5.98967 11.375 5.625 11.375V7.375ZM3.76884 8.14384C3.27656 8.63613 3 9.30381 3 10L7 10C7 10.3647 6.85513 10.7144 6.59727 10.9723L3.76884 8.14384ZM3 10C3 10.6962 3.27656 11.3639 3.76884 11.8562L6.59727 9.02773C6.85513 9.28559 7 9.63533 7 10L3 10ZM3.76884 11.8562C4.26113 12.3484 4.92881 12.625 5.625 12.625V8.625C5.98967 8.625 6.33941 8.76986 6.59727 9.02773L3.76884 11.8562ZM5.625 12.625H12.8663V8.625H5.625V12.625ZM11.4524 9.21046L8.76862 11.893L11.5964 14.722L14.2801 12.0395L11.4524 9.21046ZM8.76829 11.8933C8.52446 12.1371 8.33105 12.4266 8.19909 12.7452L11.8946 14.2759C11.8255 14.4426 11.7243 14.5941 11.5967 14.7217L8.76829 11.8933ZM8.19909 12.7452C8.06713 13.0637 7.99921 13.4052 7.99921 13.75L11.9992 13.75C11.9992 13.9305 11.9637 14.1092 11.8946 14.2759L8.19909 12.7452ZM7.99921 13.75C7.99921 14.0948 8.06713 14.4363 8.19909 14.7548L11.8946 13.2241C11.9637 13.3908 11.9992 13.5695 11.9992 13.75L7.99921 13.75ZM8.19909 14.7548C8.33105 15.0734 8.52446 15.3629 8.76829 15.6067L11.5967 12.7783C11.7243 12.9059 11.8255 13.0574 11.8946 13.2241L8.19909 14.7548ZM8.76829 15.6067C9.01211 15.8505 9.30158 16.044 9.62015 16.1759L11.1509 12.4804C11.3176 12.5495 11.4691 12.6507 11.5967 12.7783L8.76829 15.6067ZM9.62015 16.1759C9.93874 16.3079 10.2802 16.3758 10.625 16.3758V12.3758C10.8055 12.3758 10.9842 12.4113 11.1509 12.4804L9.62015 16.1759ZM10.625 16.3758C10.9698 16.3758 11.3113 16.3079 11.6298 16.1759L10.0991 12.4804C10.2658 12.4113 10.4445 12.3758 10.625 12.3758L10.625 16.3758ZM11.6298 16.1759C11.9484 16.044 12.2379 15.8505 12.4817 15.6067L9.65329 12.7783C9.78089 12.6507 9.93238 12.5495 10.0991 12.4804L11.6298 16.1759ZM12.4817 15.6067L16.2317 11.8567L13.4033 9.02829L9.65329 12.7783L12.4817 15.6067ZM16.2299 11.8585C16.4744 11.6147 16.6683 11.325 16.8007 11.0061L13.1061 9.47301C13.1754 9.30597 13.277 9.15423 13.4051 9.0265L16.2299 11.8585ZM16.8007 11.0061C16.933 10.6872 17.0011 10.3453 17.0011 10H13.0011C13.0011 9.81914 13.0368 9.64005 13.1061 9.47301L16.8007 11.0061ZM17.0011 10C17.0011 9.65472 16.933 9.31283 16.8007 8.99392L13.1061 10.527C13.0368 10.3599 13.0011 10.1809 13.0011 10H17.0011ZM16.8007 8.99392C16.6683 8.67502 16.4744 8.38534 16.2299 8.1415L13.4051 10.9735C13.277 10.8458 13.1754 10.694 13.1061 10.527L16.8007 8.99392ZM16.2317 8.14329L12.4817 4.39329L9.65329 7.22171L13.4033 10.9717L16.2317 8.14329ZM12.4817 4.39329C12.2379 4.14946 11.9484 3.95605 11.6298 3.82409L10.0991 7.5196C9.93238 7.45054 9.78089 7.34932 9.65329 7.22171L12.4817 4.39329ZM11.6298 3.82409C11.3113 3.69213 10.9698 3.62421 10.625 3.62421V7.62421C10.4445 7.62421 10.2658 7.58867 10.0991 7.5196L11.6298 3.82409ZM10.625 3.62421C10.2802 3.62421 9.93873 3.69213 9.62015 3.82409L11.1509 7.5196C10.9842 7.58867 10.8055 7.62421 10.625 7.62421V3.62421ZM9.62015 3.82409C9.30158 3.95605 9.01211 4.14946 8.76829 4.39329L11.5967 7.22171C11.4691 7.34932 11.3176 7.45054 11.1509 7.5196L9.62015 3.82409ZM8.76829 4.39329C8.52446 4.63711 8.33105 4.92658 8.19909 5.24515L11.8946 6.77589C11.8255 6.94262 11.7243 7.09411 11.5967 7.22171L8.76829 4.39329ZM8.19909 5.24515C8.06713 5.56373 7.99921 5.90518 7.99921 6.25L11.9992 6.25C11.9992 6.43046 11.9637 6.60916 11.8946 6.77589L8.19909 5.24515ZM7.99921 6.25C7.99921 6.59482 8.06713 6.93627 8.19909 7.25485L11.8946 5.72411C11.9637 5.89084 11.9992 6.06954 11.9992 6.25L7.99921 6.25ZM8.19909 7.25485C8.33105 7.57342 8.52446 7.86289 8.76829 8.10671L11.5967 5.27829C11.7243 5.40589 11.8255 5.55738 11.8946 5.72411L8.19909 7.25485ZM8.76862 8.10704L11.4524 10.7895L14.2801 7.96046L11.5964 5.27796L8.76862 8.10704ZM12.8663 7.375H5.625V11.375H12.8663V7.375Z" fill="#67375C" mask="url(#path-1-inside-1_626_119)"/>
</svg>
