<svg width="27" height="24" viewBox="0 0 27 24" fill="none" xmlns="http://www.w3.org/2000/svg">
<path d="M16.3379 5H13.001V1.66002L16.3379 5ZM9.50091 1V6.375C9.50091 7.54612 10.455 8.5 11.626 8.5H17.0016V12.5H16.9969H9.75085C8.78611 12.5 8.00078 13.2851 8.00078 14.25V15.75C8.00078 16.7149 8.78611 17.5 9.75085 17.5H16.9969H17.0016V22.875C17.0016 22.9461 16.9478 23 16.8765 23H1.1251C1.05381 23 1 22.9461 1 22.875V1.125C1 1.05393 1.05381 1 1.1251 1H9.50091ZM19.0016 15.5H18.9969V14.5H19.0016H20.9971H21.9971V13.5V11.0515L25.9173 15.0001L21.9971 18.9527V16.5V15.5H20.9971H19.0016Z" stroke="#67375C" stroke-width="2"/>
</svg>
