<svg width="31" height="45" viewBox="0 0 31 45" fill="none" xmlns="http://www.w3.org/2000/svg">
<path d="M4.44795 12.7579L4.44813 12.756C4.52846 11.87 4.5389 11.5499 4.54576 10.2224M4.44795 12.7579L4.54576 10.2222C4.54576 10.2223 4.54576 10.2224 4.54576 10.2224M4.44795 12.7579C4.39597 13.3078 4.35799 13.8331 4.35799 13.9348V14.1722V14.5796L3.95896 14.6619L3.76654 14.7015C3.76618 14.7016 3.76582 14.7017 3.76546 14.7018C3.42439 14.774 3.07196 14.9798 2.32584 15.7072L2.32582 15.7073C1.97016 16.054 1.75781 16.2953 1.59578 16.5453C1.43467 16.794 1.30924 17.0729 1.15434 17.512C0.858217 18.3512 0.70037 19.3826 0.636196 21.0499L0.636176 21.0504C0.6162 21.5558 0.602425 25.0721 0.602425 29.4641C0.602425 32.6838 0.60072 34.5874 0.593452 35.7363C0.586267 36.8722 0.573913 37.2952 0.548182 37.5278L0.0512122 37.4729M4.44795 12.7579L8.12373 2.7597C7.85823 3.23847 7.74825 3.85402 7.69165 4.70572L7.69162 4.70609C7.64496 5.41625 7.66414 6.1802 7.76313 7.8417L7.76324 7.84352C7.81022 8.5864 7.83053 9.34134 7.83053 10.2363C7.83053 11.349 7.84444 11.7391 7.91771 12.5697C7.962 13.1003 8.00927 13.716 8.02262 13.9314C8.02264 13.9317 8.02266 13.9319 8.02267 13.9322L8.04649 14.3354L8.06863 14.7102L8.43476 14.7935L8.62596 14.837L8.62894 14.8376C8.94165 14.9067 9.34249 15.1406 10.0132 15.7811C10.5294 16.274 10.7317 16.5429 10.9554 16.9926C11.3942 17.8799 11.6262 18.9173 11.72 20.6135L11.7202 20.6162C11.7395 20.9347 11.7636 24.7293 11.7739 29.2546L11.7739 29.2548C11.7807 31.7129 11.7892 33.7501 11.7986 35.1893C11.8033 35.9088 11.8082 36.4796 11.8133 36.8791C11.8158 37.0786 11.8184 37.2368 11.821 37.3498C11.8223 37.4061 11.8236 37.4531 11.8251 37.4892L11.8252 37.4925C11.8261 37.5147 11.8279 37.5618 11.8337 37.6019C11.8333 37.5992 11.8336 37.6052 11.8343 37.6216C11.8357 37.6537 11.8389 37.7255 11.8424 37.8501C11.8471 38.017 11.8518 38.2468 11.8563 38.5242C11.8652 39.0788 11.8729 39.8191 11.8763 40.6183L11.8763 40.6186L11.8895 43.395L11.8533 43.4836C11.8531 43.4841 11.8529 43.4846 11.8527 43.4851C11.851 43.4891 11.8494 43.4929 11.8479 43.4963C11.8433 43.4987 11.8381 43.5013 11.8325 43.5041C11.7765 43.5304 11.6077 43.5888 11.3641 43.6582C11.13 43.7248 10.8656 43.7908 10.6489 43.8345L10.6484 43.8346C9.99845 43.9664 9.23448 44.0681 7.73389 44.2218C7.46414 44.2487 6.75738 44.2627 5.27486 44.2627C3.25269 44.2627 3.2065 44.2577 2.81308 44.1925L2.81063 44.1921L2.81063 44.1921C2.17952 44.0907 1.60642 43.9387 1.37375 43.8375C1.15158 43.7372 0.887853 43.5556 0.58343 43.2667C0.583354 43.2666 0.583278 43.2665 0.583203 43.2664L0.5 43.1873V40.673C0.5 38.4728 0.51106 37.8672 0.548247 37.5272L0.0512122 37.4729M4.54576 10.2224C4.55255 9.12226 4.57285 8.4131 4.62672 7.54237M4.54576 10.2224C4.54576 10.2225 4.54576 10.2226 4.54576 10.2227L4.62672 7.54237M4.62672 7.54237C4.67351 6.80057 4.69602 6.00303 4.69428 5.31987C4.69259 4.65196 4.66799 4.05132 4.60957 3.72742C4.60955 3.72732 4.60953 3.72721 4.60951 3.7271L4.11746 3.81594C4.0328 3.34522 3.92271 3.01504 3.76467 2.7683L4.62672 7.54237ZM6.43128 2.67331C5.92496 2.74027 5.57061 2.72496 5.14157 2.58629L5.14016 2.58583C4.88751 2.50334 4.84461 2.49789 4.79006 2.50045C4.70833 2.50429 4.59444 2.53136 4.26098 2.62596L6.36739 2.1774M6.43128 2.67331C6.43188 2.67323 6.43249 2.67315 6.43309 2.67307L6.36739 2.1774M6.43128 2.67331C6.43074 2.67337 6.43021 2.67344 6.42969 2.6735L6.36739 2.1774M6.43128 2.67331C6.54446 2.65926 6.86218 2.63675 7.14016 2.62343L7.13808 2.62351L7.1185 2.12389M6.36739 2.1774C6.50054 2.16068 6.83854 2.13727 7.1185 2.12389M7.1185 2.12389L7.14236 2.62333M7.1185 2.12389L7.14236 2.62333M7.14236 2.62333L7.57217 2.6065M7.14236 2.62333L7.63062 2.10383M7.57217 2.6065L7.49692 2.58562L7.63062 2.10383M7.57217 2.6065L7.6502 2.60345L7.63062 2.10383M7.57217 2.6065L8.10728 2.75498L8.24517 2.27437M7.63062 2.10383L8.24517 2.27437M8.24517 2.27437L8.11147 2.75616L8.10949 2.75562L8.24517 2.27437ZM0.0512122 37.4729C0.0955962 37.0716 0.102424 35.9046 0.102424 29.4641C0.102424 25.0802 0.116081 21.5489 0.136566 21.0306L0 43.4017V40.673C0 38.4894 0.0102424 37.8474 0.0512122 37.4729Z" fill="white" stroke="white"/>
<path d="M15.9778 8.05225H29.8728" stroke="white" stroke-width="2" stroke-linecap="round"/>
<path d="M22.925 1.10498V15" stroke="white" stroke-width="2" stroke-linecap="round"/>
</svg>
