<svg width="30" height="45" viewBox="0 0 30 45" fill="none" xmlns="http://www.w3.org/2000/svg">
<path d="M3.66338 14.2123C3.17175 14.316 2.73132 14.6136 1.97679 15.3492M3.66338 14.2123L3.85799 14.1722L1.97679 15.3492M3.66338 14.2123L3.76436 14.702L3.76541 14.7018M3.66338 14.2123L3.76654 14.7015L3.95896 14.6619L4.35799 14.5796V14.1722V13.9348C4.35799 13.8331 4.39597 13.3078 4.44795 12.7579L4.44813 12.756C4.52846 11.87 4.5389 11.5499 4.54576 10.2224M1.97679 15.3492C1.24616 16.0615 1.00376 16.436 0.68283 17.3456C0.3619 18.2551 0.201435 19.3453 0.136566 21.0306L1.97679 15.3492ZM3.76541 14.7018L4.04577 10.2196M3.76541 14.7018C3.42435 14.774 3.07192 14.9798 2.32584 15.7072L2.32582 15.7073C1.97016 16.054 1.75781 16.2953 1.59578 16.5453C1.43467 16.794 1.30924 17.0729 1.15434 17.512C0.858217 18.3512 0.70037 19.3826 0.636196 21.0499L0.636176 21.0504C0.6162 21.5558 0.602425 25.0721 0.602425 29.4641C0.602425 32.6838 0.60072 34.5874 0.593452 35.7363C0.586267 36.8722 0.573913 37.2952 0.548182 37.5278L0.0514098 37.4729L0.548247 37.5272C0.51106 37.8672 0.5 38.4728 0.5 40.673V43.1873L0.583203 43.2664C0.583278 43.2665 0.583354 43.2666 0.58343 43.2667C0.887851 43.5556 1.15158 43.7372 1.37375 43.8375C1.60642 43.9387 2.17952 44.0907 2.81063 44.1921L2.81063 44.1921L2.81308 44.1925C3.2065 44.2577 3.25269 44.2627 5.27486 44.2627C6.75738 44.2627 7.46414 44.2487 7.73389 44.2218C9.23448 44.0681 9.99845 43.9664 10.6484 43.8346L10.6489 43.8345C10.8656 43.7908 11.13 43.7248 11.3641 43.6582C11.6077 43.5888 11.7764 43.5304 11.8325 43.5042C11.8381 43.5013 11.8433 43.4987 11.8479 43.4963C11.8494 43.4929 11.851 43.4891 11.8527 43.4851C11.8529 43.4846 11.8531 43.4841 11.8533 43.4836L11.8895 43.395L11.8763 40.6186L11.8763 40.6183C11.8729 39.8191 11.8652 39.0788 11.8563 38.5242C11.8518 38.2468 11.8471 38.017 11.8424 37.8501C11.8389 37.7255 11.8357 37.6537 11.8343 37.6216C11.8336 37.6052 11.8333 37.5992 11.8337 37.6019C11.8279 37.5618 11.8261 37.5147 11.8252 37.4925L11.8251 37.4892C11.8236 37.4531 11.8223 37.4061 11.821 37.3498C11.8184 37.2368 11.8158 37.0786 11.8133 36.8791C11.8082 36.4796 11.8033 35.9088 11.7986 35.1893C11.7892 33.7501 11.7807 31.7129 11.7739 29.2548V29.2546C11.7636 24.7293 11.7395 20.9347 11.7202 20.6162L11.72 20.6135C11.6262 18.9173 11.3942 17.8799 10.9554 16.9926C10.7317 16.5429 10.5294 16.274 10.0132 15.7811C9.34249 15.1406 8.94165 14.9067 8.62894 14.8376L8.62595 14.837L8.43476 14.7935L8.06863 14.7102L8.04649 14.3354L8.02267 13.9322C8.02266 13.932 8.02265 13.9319 8.02264 13.9317L3.76541 14.7018ZM4.54576 10.2224C4.54576 10.2223 4.54576 10.2223 4.54576 10.2222L4.04577 10.2196M4.54576 10.2224C4.54576 10.2225 4.54576 10.2226 4.54576 10.2227L4.04577 10.2196M4.54576 10.2224C4.55255 9.12226 4.57285 8.4131 4.62672 7.54237M4.04577 10.2196C4.0526 9.11277 4.07308 8.39381 4.12771 7.51101M4.62672 7.54237C4.62672 7.54241 4.62672 7.54245 4.62672 7.54249L4.12771 7.51101M4.62672 7.54237C4.67351 6.80057 4.69602 6.00303 4.69428 5.31987C4.69259 4.65174 4.66797 4.05092 4.60951 3.7271M4.62672 7.54237C4.62673 7.54221 4.62674 7.54205 4.62675 7.54189L4.12771 7.51101M4.12771 7.51101L4.60951 3.7271M4.60951 3.7271C4.60953 3.72721 4.60955 3.72732 4.60957 3.72742L4.11746 3.81594L4.60951 3.7271ZM4.60951 3.7271C4.53115 3.29152 4.42578 2.92843 4.26098 2.62596M4.60951 3.7271L4.18311 2.64813C4.21032 2.64036 4.23626 2.63297 4.26098 2.62596M4.26098 2.62596C4.21513 2.5418 4.16468 2.46233 4.10893 2.38731L5.29535 2.11052C5.63676 2.22087 5.91331 2.23759 6.36739 2.1774C6.50054 2.16068 6.83854 2.13727 7.1185 2.12389M4.26098 2.62596C4.59444 2.53136 4.70833 2.50429 4.79006 2.50045C4.84461 2.49789 4.88751 2.50334 5.14017 2.58583L5.14157 2.58628C5.57062 2.72496 5.92499 2.74026 6.43133 2.67329M6.43133 2.67329C6.43077 2.67336 6.43023 2.67343 6.42968 2.6735L6.36739 2.17743L6.43309 2.67306C6.4325 2.67314 6.43191 2.67322 6.43133 2.67329ZM6.43133 2.67329C6.54461 2.65924 6.86256 2.63672 7.14061 2.62341L7.13808 2.62351L7.1185 2.12389M7.1185 2.12389L7.63062 2.10383M7.1185 2.12389L7.14236 2.62333L7.57217 2.6065M7.63062 2.10383L7.49692 2.58562L7.57217 2.6065M7.63062 2.10383L7.6502 2.60345L7.57217 2.6065M7.63062 2.10383L7.57217 2.6065M8.62216 2.90047C8.62799 2.89153 8.63389 2.88269 8.63986 2.87392C8.59455 2.83998 8.53863 2.78532 8.49788 2.70261C8.423 2.55061 8.44764 2.4152 8.47355 2.3394C8.462 2.33614 8.45033 2.33283 8.43853 2.32949C8.31449 2.46053 8.21076 2.60276 8.12373 2.7597C8.28812 2.80681 8.44334 2.85047 8.56238 2.88378L8.62216 2.90047ZM8.10941 2.75559C8.1087 2.75539 8.10799 2.75518 8.10728 2.75498L8.24517 2.27437L8.11147 2.75616L8.10941 2.75559ZM7.91772 12.5698C7.91768 12.5694 7.91765 12.569 7.91761 12.5685L8.41588 12.5269L7.91781 12.5709C7.91778 12.5705 7.91775 12.5702 7.91772 12.5698ZM8.88013 2.59069L8.92117 2.46498L8.8862 2.58399C8.88423 2.58618 8.88221 2.58842 8.88013 2.59069Z" fill="white" stroke="white"/>
<path d="M14.3899 8.94727H28.2849" stroke="white" stroke-width="3" stroke-linecap="round"/>
<path d="M21.3372 2V15.895" stroke="white" stroke-width="3" stroke-linecap="round"/>
</svg>
