<svg width="78" height="78" viewBox="0 0 78 78" fill="none" xmlns="http://www.w3.org/2000/svg">
<path d="M39.0002 11.6743C29.9019 11.6743 22.5 19.0762 22.5 28.1745C22.5 32.5902 24.2414 37.6008 27.1582 41.5779C30.4573 46.0764 34.663 48.554 39.0002 48.554C43.3375 48.554 47.543 46.0766 50.8424 41.5779C53.7592 37.6008 55.5006 32.5902 55.5006 28.1745C55.5006 19.0762 48.0984 11.6743 39.0002 11.6743ZM39.0002 45.036C35.8584 45.036 32.5762 43.0175 29.995 39.4974C27.5419 36.1526 26.0179 31.8139 26.0179 28.1745C26.0179 21.016 31.8417 15.1922 39.0002 15.1922C46.1586 15.1922 51.9824 21.016 51.9824 28.1745C51.9826 35.6069 45.8699 45.036 39.0002 45.036Z" fill="#909090"/>
<path d="M39 0C17.4955 0 0 17.4953 0 39C0 60.5045 17.4953 78 39 78C60.5047 78 78 60.5047 78 39C78 17.4953 60.5045 0 39 0ZM39 74.4821C31.941 74.4819 25.3573 72.4091 19.8244 68.8412C20.0167 63.4544 22.4553 58.4041 26.5844 54.8977C28.2251 53.5043 30.621 53.3521 32.5465 54.5189C34.6263 55.7792 36.7978 56.4183 39.0007 56.4183C41.2031 56.4183 43.3739 55.7795 45.4528 54.5198C47.3761 53.3542 49.7657 53.5008 51.3987 54.8845C55.5309 58.386 57.9833 63.4509 58.1754 68.8417C52.6424 72.4093 46.0588 74.4821 39 74.4821ZM61.4914 66.4223C60.7318 60.9149 57.9709 55.8426 53.673 52.2006C50.8844 49.838 46.8482 49.5608 43.6296 51.5113C40.5868 53.3549 37.4132 53.3547 34.3697 51.5104C31.1473 49.5575 27.1038 49.8415 24.3071 52.2163C20.0129 55.863 17.2631 60.9208 16.5056 66.42C8.58112 59.9072 3.51791 50.034 3.51791 39.0002C3.51791 19.435 19.4353 3.51791 39 3.51791C58.565 3.51791 74.4821 19.435 74.4821 39C74.4821 50.0352 69.4177 59.9095 61.4914 66.4223Z" fill="#909090"/>
</svg>
