<svg width="22" height="18" viewBox="0 0 22 18" fill="none" xmlns="http://www.w3.org/2000/svg">
<path d="M0.604027 10.518L9.03329 17.5008C9.22858 17.6615 9.49604 17.6915 9.72317 17.5844C9.9503 17.4751 10.0946 17.2458 10.0946 16.9909L10.1137 13.3077C13.8922 13.1856 16.8173 11.96 18.7128 9.721C21.8014 6.07643 21.1115 0.77776 21.0796 0.557072C21.0308 0.23568 20.7973 -5.52565e-06 20.4768 -5.52565e-06C20.4704 -5.52565e-06 20.4619 -5.52565e-06 20.4534 -5.52565e-06C20.1244 0.0107061 19.9164 0.267821 19.8888 0.599924C19.8676 0.842037 19.2202 6.73206 10.1116 6.72563L10.0925 2.95893C10.0925 2.70611 9.94818 2.4747 9.71893 2.36543C9.49392 2.25616 9.22221 2.29044 9.02905 2.45113L0.599782 9.50031C0.449071 9.62458 0.36204 9.81099 0.36204 10.0081C0.364163 10.2074 0.453316 10.3938 0.604027 10.518ZM8.79343 4.34948V7.39199C8.79343 7.56554 8.86135 7.73266 8.98447 7.85693C9.10759 7.97906 9.27104 8.04762 9.44298 8.04762H9.4451C15.9491 8.04334 18.4348 5.82574 19.8548 3.86954C19.6468 5.43793 19.0419 7.32771 17.7215 8.87253C15.9682 10.9251 13.1429 12.0072 9.44298 12.0072C9.08424 12.0072 8.79343 12.3007 8.79343 12.6628V15.611L2.0411 10.006L8.79343 4.34948Z" fill="#67375C"/>
</svg>
