<svg width="27" height="27" viewBox="0 0 27 27" fill="none" xmlns="http://www.w3.org/2000/svg">
<path d="M18 6.75V5.85C18 4.58988 18 3.95982 17.7548 3.47852C17.539 3.05516 17.1948 2.71095 16.7715 2.49524C16.2902 2.25 15.6601 2.25 14.4 2.25H12.6C11.3399 2.25 10.7098 2.25 10.2285 2.49524C9.80516 2.71095 9.46095 3.05516 9.24524 3.47852C9 3.95982 9 4.58988 9 5.85V6.75M11.25 12.9375V18.5625M15.75 12.9375V18.5625M3.375 6.75H23.625M21.375 6.75V19.35C21.375 21.2402 21.375 22.1853 21.0071 22.9072C20.6836 23.5423 20.1673 24.0586 19.5322 24.3821C18.8103 24.75 17.8652 24.75 15.975 24.75H11.025C9.13482 24.75 8.18973 24.75 7.46778 24.3821C6.83274 24.0586 6.31643 23.5423 5.99285 22.9072C5.625 22.1853 5.625 21.2402 5.625 19.35V6.75" stroke="#67375C" stroke-width="2" stroke-linecap="round" stroke-linejoin="round"/>
</svg>
