<svg width="24" height="26" viewBox="0 0 24 26" fill="none" xmlns="http://www.w3.org/2000/svg">
<path d="M22.3333 25C22.3333 23.1392 22.3333 22.2089 22.1037 21.4518C21.5866 19.7473 20.2527 18.4134 18.5482 17.8963C17.7911 17.6667 16.8608 17.6667 15 17.6667H8.33334C6.47258 17.6667 5.54221 17.6667 4.78514 17.8963C3.08061 18.4134 1.74672 19.7473 1.22965 21.4518C1 22.2089 1 23.1392 1 25M17.6667 7C17.6667 10.3137 14.9804 13 11.6667 13C8.35296 13 5.66667 10.3137 5.66667 7C5.66667 3.68629 8.35296 1 11.6667 1C14.9804 1 17.6667 3.68629 17.6667 7Z" stroke="white" stroke-width="2" stroke-linecap="round" stroke-linejoin="round"/>
</svg>
