<svg width="12" height="33" viewBox="0 0 12 33" fill="none" xmlns="http://www.w3.org/2000/svg">
<path d="M4.2 0C3.88594 0 3.56484 0.1214 3.3375 0.371947C3.11016 0.622495 3 0.976362 3 1.32248V3.7608C2.96484 3.88995 2.96484 4.02426 3 4.15341V8.82342C2.55469 9.02747 1.9875 9.35293 1.40625 10.0013C0.649219 10.8433 0 12.1813 0 14.0927V31.1403C0 32.1554 0.766406 33 1.6875 33H10.3125C11.2336 33 12 32.1554 12 31.1403V14.0927C12 12.2123 11.3484 10.8717 10.5937 10.0219C10.0172 9.37101 9.45 9.05589 9 8.84408V4.09142C9.01641 4.0036 9.01641 3.91061 9 3.82279V1.32248C9 0.976362 8.88984 0.622495 8.6625 0.371947C8.43516 0.1214 8.11406 0 7.8 0H4.2ZM4.2 1.32248H7.8V3.3062H4.2V1.32248ZM4.2 4.62868H7.8V9.25736C7.80234 9.5389 7.96875 9.78945 8.2125 9.87727C8.51016 9.98575 9.18281 10.3138 9.75 10.9518C10.3333 11.6875 10.3333 11.6875 10.3333 11.6875L10.8 31.1403C10.8 31.1403 10.8 31.1403 10.3125 31.1948C9.825 31.2494 8.33333 31.4164 8.33333 31.4164L6 31.6775L1.82159 31.2098L1.2 31.1403C1.38224 23.5435 1.66667 11.6875 1.66667 11.6875C1.66667 11.6875 1.6875 11.5381 2.25 10.9105C2.8125 10.2828 3.47578 9.99092 3.7875 9.87727C4.03125 9.78945 4.19766 9.5389 4.2 9.25736V4.62868ZM1.66667 11.6875H6H10.3333L10.8 31.1403L6 31.6775C6 31.6775 3.07452 31.3501 1.2 31.1403C1.38224 23.5435 1.66667 11.6875 1.66667 11.6875Z" fill="#ABA08D"/>
</svg>
