<svg width="16" height="48" viewBox="0 0 16 48" fill="none" xmlns="http://www.w3.org/2000/svg">
<path d="M5.6 0C5.18125 0 4.75312 0.176581 4.45 0.541014C4.14688 0.905447 4 1.42016 4 1.92361V5.47026C3.95312 5.65811 3.95312 5.85348 4 6.04133V12.8341C3.40625 13.1309 2.65 13.6043 1.875 14.5473C0.865625 15.7721 0 17.7182 0 20.4984V45.2949C0 46.7714 1.02188 48 2.25 48H13.75C14.9781 48 16 46.7714 16 45.2949V20.4984C16 17.7633 15.1313 15.8134 14.125 14.5773C13.3563 13.6306 12.6 13.1722 12 12.8641V5.95116C12.0219 5.82342 12.0219 5.68817 12 5.56043V1.92361C12 1.42016 11.8531 0.905447 11.55 0.541014C11.2469 0.176581 10.8188 0 10.4 0H5.6ZM5.6 1.92361H10.4V4.80902H5.6V1.92361ZM5.6 6.73262H10.4V13.4652C10.4031 13.8748 10.625 14.2392 10.95 14.3669C11.3469 14.5247 12.2438 15.0019 13 15.9299C13.7563 16.8579 14.4 18.2329 14.4 20.4984V45.2949C14.4 45.742 14.1219 46.0764 13.75 46.0764H2.25C1.87812 46.0764 1.6 45.742 1.6 45.2949V20.4984C1.6 18.1803 2.25 16.7827 3 15.8698C3.75 14.9568 4.63438 14.5322 5.05 14.3669C5.375 14.2392 5.59688 13.8748 5.6 13.4652V6.73262ZM3.85 24.0451C3.46875 24.1315 3.19375 24.5373 3.2 25.0069V40.3957C3.2 40.9255 3.55938 41.3575 4 41.3575H12C12.4406 41.3575 12.8 40.9255 12.8 40.3957V25.0069C12.8 24.4771 12.4406 24.0451 12 24.0451H4C3.975 24.0451 3.95 24.0451 3.925 24.0451C3.9 24.0451 3.875 24.0451 3.85 24.0451ZM4.8 25.9687H11.2V28.8541H4.8V25.9687ZM4.8 30.7777H11.2V39.4339H4.8V30.7777Z" fill="#ABA08D"/>
</svg>
