<svg width="26" height="26" viewBox="0 0 26 26" fill="none" xmlns="http://www.w3.org/2000/svg">
<path d="M24.7915 23.3337L23.4225 24.7189C22.9678 25.1791 22.2325 25.1791 21.7826 24.7189L16.9548 19.8388C16.7371 19.6185 16.6162 19.3199 16.6162 19.0067V18.2088C14.9086 19.5598 12.7607 20.3625 10.4242 20.3625C4.86598 20.3625 0.362305 15.8054 0.362305 10.1813C0.362305 4.5571 4.86598 0 10.4242 0C15.9825 0 20.4861 4.5571 20.4861 10.1813C20.4861 12.5455 19.6928 14.7188 18.3577 16.4467H19.1462C19.4558 16.4467 19.7508 16.569 19.9685 16.7893L24.7915 21.6695C25.2414 22.1296 25.2414 22.8736 24.7915 23.3337ZM17.0032 10.1813C17.0032 6.50035 14.062 3.52428 10.4242 3.52428C6.78645 3.52428 3.84528 6.50035 3.84528 10.1813C3.84528 13.8622 6.78645 16.8382 10.4242 16.8382C14.062 16.8382 17.0032 13.8622 17.0032 10.1813Z" fill="#919191"/>
</svg>
