<svg width="28" height="25" viewBox="0 0 28 25" fill="none" xmlns="http://www.w3.org/2000/svg">
<path d="M25.7384 2.28535C24.2722 0.819163 22.3311 0.017808 20.2595 0.017808C18.1878 0.017808 16.2408 0.825099 14.7746 2.29128L14.0089 3.05702L13.2313 2.27941C11.7651 0.813227 9.81218 0 7.74053 0C5.67481 0 3.72782 0.807291 2.26757 2.26754C0.801387 3.73372 -0.00590346 5.68072 3.25037e-05 7.75237C3.25037e-05 9.82402 0.813259 11.7651 2.27944 13.2313L13.4272 24.379C13.5815 24.5333 13.7893 24.6164 13.9911 24.6164C14.1929 24.6164 14.4007 24.5393 14.555 24.3849L25.7265 13.255C27.1927 11.7888 28 9.84182 28 7.77017C28.0059 5.69852 27.2045 3.75153 25.7384 2.28535ZM24.5987 12.1212L13.9911 22.6872L3.40727 12.1034C2.24383 10.94 1.60274 9.39663 1.60274 7.75237C1.60274 6.10811 2.23789 4.56475 3.40134 3.40724C4.55885 2.24973 6.1022 1.60865 7.74053 1.60865C9.38479 1.60865 10.9341 2.24973 12.0975 3.41318L13.4391 4.75471C13.7537 5.06931 14.2582 5.06931 14.5728 4.75471L15.9025 3.42505C17.0659 2.2616 18.6152 1.62052 20.2535 1.62052C21.8919 1.62052 23.4352 2.2616 24.5987 3.41911C25.7621 4.58256 26.3973 6.12591 26.3973 7.77017C26.4032 9.41444 25.7621 10.9578 24.5987 12.1212Z" fill="#909090"/>
</svg>
